<svg width="24" height="24" viewBox="0 0 24 24" fill="none" xmlns="http://www.w3.org/2000/svg">
<path fill-rule="evenodd" clip-rule="evenodd" d="M0.5 2.05078C0.5 1.4985 0.947715 1.05078 1.5 1.05078H3.49601C3.96774 1.05078 4.37532 1.38045 4.47392 1.84176L5.37357 6.05078H21.5C21.8032 6.05078 22.0901 6.18836 22.2799 6.42483C22.4697 6.6613 22.5419 6.97112 22.4763 7.26716L20.83 14.6954C20.8299 14.6957 20.8298 14.6961 20.8298 14.6965C20.6832 15.3624 20.3143 15.9588 19.7836 16.3869C19.2525 16.8154 18.5912 17.0497 17.9088 17.0508L8.1567 17.0508C7.46374 17.0634 6.78792 16.835 6.24432 16.4047C5.69755 15.9719 5.31884 15.362 5.17286 14.6801L3.59648 7.30503C3.58884 7.27589 3.58249 7.24624 3.57748 7.21613L2.68716 3.05078H1.5C0.947715 3.05078 0.5 2.60307 0.5 2.05078ZM5.80105 8.05078L7.12854 14.2614C7.17733 14.4893 7.30379 14.6926 7.48564 14.8366C7.66745 14.9805 7.89334 15.0562 8.12442 15.051L8.14671 15.0508L17.9056 15.0508C17.9054 15.0508 17.9057 15.0508 17.9056 15.0508C18.1315 15.0503 18.3514 14.9727 18.5278 14.8303C18.7045 14.6878 18.8277 14.4889 18.8766 14.2662L18.877 14.2644L20.2541 8.05078H5.80105ZM5.44001 21C5.44001 19.8973 6.33267 19 7.43802 19C8.54337 19 9.43602 19.8973 9.43602 21C9.43602 22.1027 8.54337 23 7.43802 23C6.33267 23 5.44001 22.1027 5.44001 21ZM16.4166 21C16.4166 19.8973 17.3092 19 18.4146 19C19.5199 19 20.4126 19.8973 20.4126 21C20.4126 22.1027 19.5199 23 18.4146 23C17.3092 23 16.4166 22.1027 16.4166 21Z" fill="#2E2E2E"/>
</svg>
