<svg width="24" height="24" viewBox="0 0 24 24" fill="none" xmlns="http://www.w3.org/2000/svg">
<path fill-rule="evenodd" clip-rule="evenodd" d="M0.700195 2.05079C0.700195 1.60897 1.05837 1.25079 1.5002 1.25079H4.14328L6.93317 14.3033C6.99167 14.5766 7.14336 14.8205 7.36171 14.9934C7.58002 15.1662 7.85138 15.2572 8.12907 15.251L8.13798 15.2508L17.9061 15.2508C18.1777 15.2502 18.4417 15.1569 18.6536 14.986C18.8657 14.8149 19.0134 14.5762 19.0721 14.3091L20.7191 6.87769C20.8147 6.44633 21.2419 6.17414 21.6733 6.26975C22.1047 6.36535 22.3768 6.79254 22.2812 7.2239L20.6349 14.6525C20.4981 15.2743 20.1537 15.8315 19.6582 16.2313C19.1626 16.6311 18.5454 16.8498 17.9087 16.8508L8.15504 16.8508C7.50779 16.863 6.87643 16.6499 6.36865 16.2479C5.85837 15.844 5.50488 15.2747 5.36862 14.6383L2.84913 2.85079H1.5002C1.05837 2.85079 0.700195 2.49262 0.700195 2.05079ZM13.0002 3.20001C13.442 3.20001 13.8002 3.55818 13.8002 4.00001V6.20001H16.0002C16.442 6.20001 16.8002 6.55818 16.8002 7.00001C16.8002 7.44184 16.442 7.80001 16.0002 7.80001H13.8002V10C13.8002 10.4418 13.442 10.8 13.0002 10.8C12.5584 10.8 12.2002 10.4418 12.2002 10V7.80001H10.0002C9.55837 7.80001 9.2002 7.44184 9.2002 7.00001C9.2002 6.55818 9.55837 6.20001 10.0002 6.20001H12.2002V4.00001C12.2002 3.55818 12.5584 3.20001 13.0002 3.20001ZM5.64021 21C5.64021 20.0074 6.4437 19.2 7.43821 19.2C8.43273 19.2 9.23622 20.0074 9.23622 21C9.23622 21.9926 8.43273 22.8 7.43821 22.8C6.4437 22.8 5.64021 21.9926 5.64021 21ZM16.6168 21C16.6168 20.0074 17.4202 19.2 18.4148 19.2C19.4093 19.2 20.2128 20.0074 20.2128 21C20.2128 21.9926 19.4093 22.8 18.4148 22.8C17.4202 22.8 16.6168 21.9926 16.6168 21Z" fill="#2E2E2E"/>
</svg>
