<svg width="12" height="12" viewBox="0 0 12 12" fill="none" xmlns="http://www.w3.org/2000/svg">
<path fill-rule="evenodd" clip-rule="evenodd" d="M0.299805 1.00005C0.299805 0.613449 0.613205 0.300049 0.999805 0.300049H10.9998C11.3864 0.300049 11.6998 0.613449 11.6998 1.00005C11.6998 1.38665 11.3864 1.70005 10.9998 1.70005H0.999805C0.613205 1.70005 0.299805 1.38665 0.299805 1.00005Z" fill="#2E2E2E"/>
<path fill-rule="evenodd" clip-rule="evenodd" d="M0.299805 6.00005C0.299805 5.61345 0.613205 5.30005 0.999805 5.30005H10.9998C11.3864 5.30005 11.6998 5.61345 11.6998 6.00005C11.6998 6.38665 11.3864 6.70005 10.9998 6.70005H0.999805C0.613205 6.70005 0.299805 6.38665 0.299805 6.00005Z" fill="#2E2E2E"/>
<path fill-rule="evenodd" clip-rule="evenodd" d="M0.299805 11C0.299805 10.6134 0.613205 10.3 0.999805 10.3H10.9998C11.3864 10.3 11.6998 10.6134 11.6998 11C11.6998 11.3866 11.3864 11.7 10.9998 11.7H0.999805C0.613205 11.7 0.299805 11.3866 0.299805 11Z" fill="#2E2E2E"/>
</svg>
