<svg width="24" height="24" viewBox="0 0 24 24" fill="none" xmlns="http://www.w3.org/2000/svg">
<path fill-rule="evenodd" clip-rule="evenodd" d="M8.93151 6.64593C7.60131 5.64211 5.65174 6.05715 4.88852 7.41473C4.38942 8.30253 4.52383 9.39072 5.25406 10.1548L12 17.5L18.759 10.3233C19.5229 9.49982 19.6193 8.32665 19.0187 7.41095C18.1337 6.06163 16.1056 5.77938 14.8348 6.88976L12 8.99997L8.93151 6.64593ZM2.98665 6.34553C4.42524 3.78658 7.90715 3.13956 10.2458 4.90435L12 6.49997L13.3992 5.24679C15.6377 3.29079 19.2109 3.72567 20.8431 6.21435C22.0012 7.98003 21.7957 10.2579 20.3586 11.8071L12 20.5L3.67675 11.6622C2.29578 10.2173 2.00832 8.08575 2.98665 6.34553Z" fill="#2E2E2E"/>
</svg>
