<svg width="24" height="24" viewBox="0 0 24 24" fill="none" xmlns="http://www.w3.org/2000/svg">
<path fill-rule="evenodd" clip-rule="evenodd" d="M8.74563 8.10659L7.74612 8.96317C7.74606 8.96322 7.74618 8.96311 7.74612 8.96317C6.64636 9.90613 6.34501 10.192 6.1828 10.5437C6.0215 10.8955 6.00021 11.3114 6.00021 12.76V17C6.00021 17.9713 6.00234 18.5989 6.06453 19.0612C6.12283 19.4946 6.21694 19.6305 6.29332 19.7069C6.36969 19.7833 6.50566 19.8774 6.93904 19.9357C7.31672 19.9865 7.80467 19.9972 8.50021 19.9994V16C8.50021 15.4696 8.71092 14.9609 9.086 14.5858C9.46107 14.2107 9.96978 14 10.5002 14H13.5002C14.0306 14 14.5394 14.2107 14.9144 14.5858C15.2895 14.9609 15.5002 15.4696 15.5002 16V19.9994C16.1957 19.9972 16.6837 19.9865 17.0614 19.9357C17.4948 19.8774 17.6307 19.7833 17.7071 19.7069C17.7835 19.6305 17.8776 19.4946 17.9359 19.0612C17.9981 18.5989 18.0002 17.9713 18.0002 17V12.759C18.0002 11.3094 17.9788 10.8947 17.8169 10.5434L17.8164 10.5421C17.6553 10.1912 17.3548 9.90668 16.2541 8.962C16.254 8.96195 16.2542 8.96205 16.2541 8.962L15.2546 8.10541C15.2546 8.10538 15.2546 8.10544 15.2546 8.10541C14.3028 7.28999 13.6588 6.74032 13.1187 6.38349C12.6021 6.04215 12.2848 5.95001 12.0002 5.95001C11.716 5.95001 11.3991 6.04211 10.8824 6.38378C10.3422 6.74097 9.69806 7.29102 8.74563 8.10659ZM13.5002 20V16H10.5002V20H13.5002ZM15.0661 22C15.9527 22.0001 16.7165 22.0001 17.328 21.9178C17.9837 21.8296 18.6117 21.6307 19.1213 21.1211C19.6309 20.6115 19.8298 19.9835 19.918 19.3278C20.0003 18.7163 20.0003 17.9525 20.0002 17.0659L20.0002 12.759C20.0002 12.6952 20.0003 12.6323 20.0003 12.5701C20.0013 11.3981 20.0021 10.5073 19.6338 9.70726C19.2676 8.90988 18.593 8.33208 17.7091 7.57497C17.6589 7.53197 17.608 7.4884 17.5565 7.44417L16.5006 6.53927C15.6131 5.77889 14.8765 5.14774 14.2212 4.71479C13.5288 4.25737 12.8256 3.95001 12.0002 3.95001C11.1744 3.95001 10.4713 4.25792 9.77928 4.7155C9.12707 5.14675 8.39386 5.77467 7.51118 6.53058C7.48915 6.54945 7.46701 6.56841 7.44479 6.58744L6.44448 7.4447C6.39518 7.48697 6.34631 7.5288 6.29824 7.56994C5.40905 8.33098 4.73391 8.90881 4.36594 9.70763L4.36536 9.70889C3.99834 10.5086 3.9991 11.3988 4.0001 12.5713C4.00016 12.6334 4.00021 12.6963 4.00021 12.76L4.00021 17.0659C4.00016 17.9525 4.00011 18.7163 4.08239 19.3278C4.17059 19.9835 4.36948 20.6115 4.8791 21.1211C5.38873 21.6307 6.01676 21.8296 6.67238 21.9178C7.28396 22.0001 8.0477 22.0001 8.93431 22H15.0661Z" fill="#2E2E2E"/>
</svg>
