<svg width="24" height="24" viewBox="0 0 24 24" fill="none" xmlns="http://www.w3.org/2000/svg">
<path fill-rule="evenodd" clip-rule="evenodd" d="M1 11.0887C1 6.61257 4.6603 3 9.15566 3C13.651 3 17.3113 6.61257 17.3113 11.0887C17.3113 12.4924 16.9513 13.8113 16.3184 14.9604L21.6259 19.2201C22.0566 19.5658 22.1256 20.1952 21.7799 20.6259C21.4342 21.0566 20.8048 21.1256 20.3741 20.7799L15.1428 16.5813C13.6515 18.1788 11.519 19.1773 9.15566 19.1773C4.6603 19.1773 1 15.5648 1 11.0887ZM9.15566 5C5.74709 5 3 7.73483 3 11.0887C3 14.4425 5.74709 17.1773 9.15566 17.1773C12.5642 17.1773 15.3113 14.4425 15.3113 11.0887C15.3113 7.73483 12.5642 5 9.15566 5Z" fill="#2E2E2E"/>
</svg>
