<svg width="36" height="36" viewBox="0 0 36 36" fill="none" xmlns="http://www.w3.org/2000/svg">
<path fill-rule="evenodd" clip-rule="evenodd" d="M8.68198 21.03C8.74686 21.0499 8.81301 21.0655 8.87998 21.0765C9.30437 22.0765 9.72637 23.0775 10.146 24.0795C10.9005 25.8825 11.661 27.7395 11.8275 28.2735C12.036 28.9305 12.255 29.3775 12.495 29.6835C12.6195 29.8395 12.762 29.9775 12.93 30.0825C13.0182 30.136 13.1117 30.1802 13.209 30.2145C13.689 30.3945 14.127 30.3195 14.4015 30.228C14.5627 30.1732 14.716 30.0976 14.8575 30.003L14.865 30L19.104 27.357L24.0015 31.11C24.0735 31.165 24.1515 31.2115 24.2355 31.2495C24.8235 31.5045 25.3935 31.5945 25.9305 31.5225C26.4645 31.4475 26.889 31.224 27.2055 30.9705C27.5686 30.6772 27.8583 30.3033 28.0515 29.8785L28.065 29.8455L28.0695 29.8335L28.0725 29.8275V29.8245L28.074 29.823C28.0986 29.758 28.1186 29.6913 28.134 29.6235L32.604 7.08598C32.6163 7.01359 32.6234 6.94039 32.625 6.86698C32.625 6.20698 32.376 5.57848 31.7925 5.19898C31.2915 4.87348 30.735 4.85848 30.3825 4.88548C30.0045 4.91548 29.6535 5.00848 29.418 5.08348C29.2864 5.12597 29.1563 5.173 29.028 5.22448L29.0115 5.23198L3.94048 15.066L3.93748 15.0675C3.85247 15.0982 3.76888 15.1327 3.68698 15.171C3.4881 15.2602 3.29738 15.3666 3.11698 15.489C2.77648 15.7215 1.99198 16.3605 2.12548 17.4165C2.23048 18.2565 2.80648 18.774 3.15898 19.023C3.35098 19.1595 3.53398 19.257 3.66898 19.3215C3.72898 19.3515 3.85798 19.4025 3.91348 19.4265L3.92848 19.431L8.68198 21.03ZM29.889 7.30198H29.886L29.847 7.31848L4.74598 17.166L4.70698 17.181L4.69198 17.1855C4.64603 17.2032 4.60097 17.2233 4.55698 17.2455C4.59892 17.269 4.64197 17.2906 4.68598 17.31L9.39898 18.897C9.4822 18.9278 9.56251 18.966 9.63898 19.011L25.2045 9.89848L25.2195 9.89098C25.2803 9.8548 25.3423 9.82078 25.4055 9.78898C25.5135 9.73348 25.686 9.65248 25.881 9.59248C26.016 9.55048 26.4165 9.43198 26.8485 9.57148C27.078 9.64307 27.2826 9.77809 27.4386 9.96096C27.5947 10.1438 27.6959 10.3671 27.7305 10.605C27.7863 10.8131 27.7879 11.0321 27.735 11.241C27.63 11.6535 27.342 11.9745 27.0795 12.2205C26.8545 12.4305 23.9355 15.2445 21.057 18.0225L17.1375 21.8025L16.44 22.4775L25.248 29.2305C25.3669 29.2801 25.496 29.3007 25.6245 29.2905C25.6892 29.2816 25.75 29.2546 25.8 29.2125C25.8607 29.1611 25.9129 29.1003 25.9545 29.0325L25.9575 29.031L30.2925 7.17148C30.1561 7.20505 30.0223 7.24816 29.892 7.30048L29.889 7.30198ZM17.1975 25.893L15.4395 24.546L15.0135 27.2535L17.1975 25.893ZM13.827 21.873L15.5745 20.1855L19.494 16.4025L20.9535 14.9955L11.1735 20.721L11.226 20.844C11.8428 22.3011 12.4528 23.7611 13.056 25.224L13.4805 22.524C13.5192 22.2737 13.6413 22.0453 13.827 21.873Z" fill="#2E2E2E"/>
</svg>
