<svg width="36" height="36" viewBox="0 0 36 36" fill="none" xmlns="http://www.w3.org/2000/svg">
<path fill-rule="evenodd" clip-rule="evenodd" d="M28.6989 8.00014C28.7359 8.00021 28.7726 8.00028 28.809 8.00028H31.5046C31.8642 8.00028 32.2286 8.02032 32.5579 8.09755C32.8875 8.17483 33.2835 8.33278 33.5878 8.69026C33.9065 9.06455 34.0013 9.51055 34 9.90495C33.9987 10.2801 33.9119 10.6711 33.7968 11.0507C32.9097 13.9806 31.0354 16.683 29.7075 18.357C29.4245 18.7134 29.2279 18.9621 29.0926 19.1507C29.2903 19.3468 29.5797 19.604 30.0009 19.977C30.003 19.9788 30.005 19.9807 30.0071 19.9825C31.4452 21.2769 32.6119 22.8594 33.436 24.6336L33.4373 24.6364C33.6235 25.0403 33.7756 25.4529 33.8296 25.8523C33.8857 26.2682 33.8463 26.7732 33.5186 27.2118C33.2087 27.6265 32.7709 27.8039 32.4203 27.8891C32.0633 27.9759 31.6598 28 31.2528 28H28.252C27.8583 28 27.3578 27.9725 26.9038 27.6802C26.4459 27.3854 26.2045 26.9312 26.0339 26.557C25.5733 25.5462 24.9707 24.3572 23.8552 23.393C23.4928 23.0805 23.2906 22.9451 23.1488 22.8827C23.0524 22.8402 22.9739 22.825 22.8212 22.8515C22.8211 22.8515 22.8213 22.8515 22.8212 22.8515C22.7346 22.8666 22.7074 22.8928 22.6854 22.9183C22.6475 22.9621 22.5887 23.0601 22.5371 23.2545C22.4266 23.6705 22.4247 24.1996 22.4247 24.7621C22.4247 25.7473 22.2602 26.7485 21.5205 27.3931C20.8019 28.0193 19.8371 28.0397 18.9907 27.9565C14.0261 27.4644 10.2339 24.6366 7.6113 21.2313C4.9991 17.8396 3.48414 13.8004 3.07716 10.6838L3.07701 10.6826C3.07481 10.6656 3.07257 10.6484 3.0703 10.631C3.03421 10.3537 2.99222 10.0311 3.00124 9.74654C3.01273 9.38403 3.10604 8.97772 3.41498 8.61508C3.41639 8.61343 3.4178 8.61179 3.41922 8.61014C3.74345 8.2343 4.14546 8.09775 4.48742 8.04407C4.76847 7.99995 5.10038 8.00011 5.40263 8.00026C5.42011 8.00027 5.43749 8.00028 5.45475 8.00028H8.63791C8.65412 8.00028 8.67042 8.00027 8.68682 8.00026C8.93098 8.00014 9.1944 8.00001 9.41921 8.02656C9.68342 8.05777 10.0167 8.13654 10.3253 8.38529C10.6387 8.6378 10.7925 8.95876 10.8837 9.21795C10.9629 9.4428 11.0251 9.71444 11.0832 9.96843C11.0863 9.98217 11.0895 9.99586 11.0926 10.0095C11.0926 10.0096 11.0926 10.0094 11.0926 10.0095C11.7171 12.7316 12.6415 15.1003 14.3458 16.9689C14.4556 17.0888 14.5527 17.1946 14.6408 17.2891C14.643 17.1199 14.6431 16.9286 14.6431 16.707V12.7443C14.6431 12.3759 14.5759 12.1585 14.3488 11.696C14.3391 11.6761 14.329 11.6555 14.3192 11.6356C14.1082 11.2053 13.9003 10.7815 13.7841 10.4191C13.6578 10.0253 13.5478 9.43025 13.8981 8.85262C14.2461 8.27893 14.8097 8.11588 15.2073 8.05571C15.575 8.00004 16.0379 8.00015 16.511 8.00027C16.5325 8.00027 16.554 8.00028 16.5756 8.00028C16.5833 8.00028 16.5911 8.00037 16.5988 8.00055L19.9877 8.07924C20.3039 8.07962 20.6277 8.09517 20.9243 8.16215C21.2376 8.2329 21.5871 8.37568 21.875 8.68155C22.1605 8.98484 22.2884 9.34571 22.351 9.66177C22.4117 9.96753 22.4247 10.3026 22.4247 10.6303V16.1365C22.4247 16.3269 22.4259 16.4923 22.4295 16.6377C22.5337 16.5315 22.6485 16.4109 22.7808 16.2717C24.2532 14.7228 25.7425 12.5186 26.1863 10.3245L26.1914 10.2998C26.2624 9.94785 26.3296 9.61508 26.4097 9.35052C26.4907 9.08285 26.6317 8.71258 26.954 8.42602C27.2911 8.12629 27.675 8.05027 27.9459 8.02223C28.1688 7.99915 28.4392 7.99966 28.6989 8.00014ZM28.881 18.9172C28.8791 18.9143 28.8796 18.9148 28.8819 18.9186C28.8815 18.9181 28.8812 18.9176 28.881 18.9172ZM28.34 10.1246C28.3048 10.2683 28.264 10.4661 28.2052 10.757C27.6478 13.5118 25.8612 16.0663 24.2547 17.7562C24.2396 17.772 24.2245 17.788 24.2093 17.804C23.884 18.1464 23.5334 18.5156 23.1961 18.7611C22.8198 19.035 22.2112 19.3345 21.5044 19.041C20.8476 18.7684 20.5736 18.197 20.4643 17.6886C20.3683 17.2423 20.3627 16.6877 20.3627 16.1365V10.6303C20.3627 10.4441 20.3569 10.3111 20.3481 10.2158C20.2617 10.2075 20.1418 10.2019 19.9758 10.2019C19.968 10.2019 19.9602 10.2018 19.9525 10.2016L16.5639 10.1229C16.3004 10.1229 16.0873 10.1231 15.9045 10.128C15.9016 10.1281 15.8986 10.1282 15.8957 10.1283C15.9737 10.2986 16.0698 10.4949 16.1892 10.7385C16.1892 10.7386 16.1892 10.7385 16.1892 10.7385C16.4888 11.3486 16.7052 11.909 16.7052 12.7443V16.707C16.7052 16.7337 16.7052 16.7604 16.7052 16.7871C16.7054 17.3425 16.7055 17.8935 16.6315 18.3239C16.5463 18.8194 16.3059 19.471 15.5864 19.7604L15.5838 19.7614C15.2838 19.8811 14.9636 19.91 14.6424 19.8346C14.3439 19.7646 14.0998 19.6175 13.912 19.477C13.5831 19.2309 13.2373 18.8531 12.9009 18.4856C12.8822 18.4651 12.8635 18.4447 12.8448 18.4244L12.8434 18.4227C10.7863 16.1679 9.74886 13.3881 9.0857 10.4973C9.05165 10.3487 9.02526 10.2338 9.00064 10.136C8.99971 10.1323 8.99878 10.1287 8.99787 10.1251C8.99586 10.125 8.99383 10.125 8.99178 10.125C8.89726 10.1229 8.78784 10.1229 8.64606 10.1229H5.45475C5.30725 10.1229 5.18851 10.123 5.0861 10.1249C5.09535 10.2035 5.10695 10.2935 5.12094 10.4016C5.47803 13.1352 6.84309 16.8171 9.2272 19.9127C11.6009 22.9948 14.9221 25.4206 19.1869 25.8435C19.9755 25.9211 20.1632 25.7948 20.1882 25.773C20.1922 25.7695 20.3627 25.6214 20.3627 24.7621C20.3627 24.7357 20.3626 24.7081 20.3626 24.6796C20.3619 24.1873 20.3608 23.3995 20.548 22.6947C20.7573 21.9068 21.283 20.9661 22.478 20.7585C22.995 20.6688 23.4767 20.7184 23.9597 20.931C24.3974 21.1237 24.7941 21.4337 25.1797 21.7661L25.1805 21.7668C26.6572 23.0429 27.4148 24.5891 27.9004 25.6548C27.9483 25.7599 27.9834 25.8259 28.008 25.8669C28.0566 25.8726 28.1329 25.8774 28.252 25.8774H31.2528C31.4398 25.8774 31.5887 25.8707 31.706 25.8598C31.6733 25.7714 31.6303 25.6679 31.5749 25.5477C30.8724 24.0357 29.8781 22.6868 28.6529 21.5833C28.6519 21.5824 28.6508 21.5814 28.6498 21.5805L28.6268 21.5602C28.1933 21.1763 27.8218 20.8473 27.5594 20.5755C27.4237 20.4349 27.2833 20.2755 27.1695 20.1012C27.0592 19.9324 26.9258 19.6774 26.898 19.3538C26.8484 18.7912 27.1396 18.3262 27.3014 18.0814C27.4923 17.7927 27.7693 17.4439 28.0814 17.0509L28.1102 17.0146C28.1103 17.0144 28.1101 17.0147 28.1102 17.0146C29.3866 15.4053 31.0601 12.956 31.8282 10.4188C31.8624 10.306 31.8865 10.2131 31.9031 10.138C31.8019 10.1287 31.6715 10.1229 31.5046 10.1229H28.809C28.7755 10.1229 28.7437 10.1229 28.7133 10.1229C28.5516 10.1228 28.4327 10.1228 28.34 10.1246Z" fill="#2E2E2E"/>
</svg>
