<svg width="36" height="36" viewBox="0 0 36 36" fill="none" xmlns="http://www.w3.org/2000/svg">
<path fill-rule="evenodd" clip-rule="evenodd" d="M15.5082 12.214C15.3325 12.1055 15.132 12.0469 14.9271 12.0442C14.7222 12.0415 14.5202 12.0948 14.3419 12.1986C14.1636 12.3025 14.0152 12.4531 13.912 12.6352C13.8088 12.8174 13.7544 13.0244 13.7544 13.2352V22.7648C13.7544 22.9756 13.8088 23.1826 13.912 23.3648C14.0152 23.5469 14.1636 23.6975 14.3419 23.8014C14.5202 23.9052 14.7222 23.9585 14.9271 23.9558C15.132 23.9531 15.3325 23.8946 15.5082 23.7861L23.2273 19.0213C23.3986 18.9154 23.5404 18.7657 23.6389 18.5867C23.7374 18.4078 23.7891 18.2056 23.7891 18C23.7891 17.7944 23.7374 17.5922 23.6389 17.4133C23.5404 17.2343 23.3986 17.0846 23.2273 16.9788L15.5082 12.214ZM20.3805 18L16.0701 20.6603V15.3397L20.3805 18Z" fill="#2E2E2E"/>
<path fill-rule="evenodd" clip-rule="evenodd" d="M25.7653 6.31198C20.5963 5.89601 15.4035 5.89601 10.2345 6.31198L6.7748 6.59152C5.75253 6.6735 4.78633 7.10505 4.0301 7.81743C3.27386 8.52981 2.77109 9.48205 2.60186 10.5225C1.79873 15.4733 1.79873 20.5268 2.60186 25.4776C2.77109 26.518 3.27386 27.4702 4.0301 28.1826C4.78633 28.895 5.75253 29.3266 6.7748 29.4085L10.2329 29.6881C15.4032 30.1042 20.5966 30.1042 25.7668 29.6881L29.225 29.4085C30.2473 29.3266 31.2135 28.895 31.9697 28.1826C32.7259 27.4702 33.2287 26.518 33.3979 25.4776C34.2007 20.527 34.2007 15.4731 33.3979 10.5225C33.2287 9.48205 32.7259 8.52981 31.9697 7.81743C31.2135 7.10505 30.2473 6.6735 29.225 6.59152L25.7653 6.31198ZM10.4151 8.68803C15.465 8.28156 20.5379 8.28156 25.5878 8.68803L29.0459 8.96597C30.0895 9.05015 30.9433 9.8554 31.1146 10.9164C31.8781 15.6061 31.8781 20.3939 31.1146 25.0837C31.031 25.5997 30.7819 26.0722 30.407 26.4256C30.0321 26.7791 29.5529 26.9933 29.0459 27.0341L25.5878 27.312C20.5379 27.7185 15.465 27.7185 10.4151 27.312L6.95697 27.0341C6.44997 26.9933 5.97083 26.7791 5.59591 26.4256C5.22099 26.0722 4.97187 25.5997 4.88825 25.0837C4.12476 20.3939 4.12476 15.6061 4.88825 10.9164C4.97187 10.4003 5.22099 9.92788 5.59591 9.5744C5.97083 9.22093 6.44997 9.00674 6.95697 8.96597L10.4151 8.68803Z" fill="#2E2E2E"/>
</svg>
