<svg width="80" height="32" viewBox="0 0 80 32" fill="none" xmlns="http://www.w3.org/2000/svg">
<path d="M0.937744 15V0.454545H11.165V3.63636H4.88661V6.13636H10.54V9.31818H4.88661V15H0.937744ZM15.7663 0.454545V15H11.8174V0.454545H15.7663ZM16.44 3.63636V0.454545H29.0821V3.63636H24.7071V15H20.815V3.63636H16.44ZM42.3534 0.454545V15H39.058L33.8023 7.35795H33.7171V15H29.7682V0.454545H33.1205L38.2909 8.06818H38.4046V0.454545H42.3534ZM43.4213 15V0.454545H53.9043V3.63636H47.3702V6.13636H53.3645V9.31818H47.3702V11.8182H53.8759V15H43.4213ZM62.9037 5C62.8658 4.52652 62.6882 4.1572 62.371 3.89205C62.0585 3.62689 61.5826 3.49432 60.9434 3.49432C60.5362 3.49432 60.2024 3.54403 59.942 3.64347C59.6863 3.73816 59.4969 3.86837 59.3738 4.03409C59.2507 4.19981 59.1868 4.3892 59.1821 4.60227C59.1726 4.77746 59.2034 4.93608 59.2744 5.07812C59.3501 5.21544 59.4685 5.34091 59.6295 5.45455C59.7905 5.56345 59.9965 5.66288 60.2474 5.75284C60.4984 5.8428 60.7966 5.9233 61.1423 5.99432L62.3355 6.25C63.1404 6.42045 63.8293 6.64536 64.4022 6.92472C64.9751 7.20407 65.4439 7.53314 65.8085 7.91193C66.1731 8.28598 66.4406 8.70739 66.611 9.17614C66.7862 9.64489 66.8762 10.1562 66.8809 10.7102C66.8762 11.6667 66.6371 12.4763 66.1636 13.1392C65.6901 13.8021 65.013 14.3063 64.1323 14.652C63.2564 14.9976 62.2029 15.1705 60.9718 15.1705C59.7076 15.1705 58.6044 14.9834 57.6622 14.6094C56.7247 14.2353 55.9955 13.66 55.4747 12.8835C54.9586 12.1023 54.6982 11.1032 54.6934 9.88636H58.4434C58.4671 10.3314 58.5784 10.7055 58.7772 11.0085C58.9761 11.3116 59.2555 11.5412 59.6153 11.6974C59.9799 11.8537 60.4131 11.9318 60.915 11.9318C61.3364 11.9318 61.6892 11.8797 61.9733 11.7756C62.2573 11.6714 62.4728 11.527 62.6196 11.3423C62.7663 11.1577 62.8421 10.947 62.8468 10.7102C62.8421 10.4877 62.7687 10.2936 62.6267 10.1278C62.4894 9.95739 62.2621 9.80587 61.9448 9.6733C61.6276 9.53598 61.1991 9.40814 60.6593 9.28977L59.2105 8.97727C57.9226 8.69792 56.907 8.23153 56.1636 7.57812C55.425 6.91998 55.058 6.02273 55.0627 4.88636C55.058 3.96307 55.3042 3.15578 55.8014 2.46449C56.3033 1.76847 56.9969 1.22633 57.8823 0.838068C58.7725 0.44981 59.7929 0.255681 60.9434 0.255681C62.1177 0.255681 63.1333 0.452178 63.9903 0.84517C64.8473 1.23816 65.5078 1.79214 65.9718 2.5071C66.4406 3.21733 66.6773 4.0483 66.6821 5H62.9037ZM75.424 5C75.3861 4.52652 75.2085 4.1572 74.8913 3.89205C74.5788 3.62689 74.1029 3.49432 73.4637 3.49432C73.0565 3.49432 72.7227 3.54403 72.4623 3.64347C72.2066 3.73816 72.0172 3.86837 71.8941 4.03409C71.771 4.19981 71.7071 4.3892 71.7024 4.60227C71.6929 4.77746 71.7237 4.93608 71.7947 5.07812C71.8705 5.21544 71.9888 5.34091 72.1498 5.45455C72.3108 5.56345 72.5168 5.66288 72.7677 5.75284C73.0187 5.8428 73.317 5.9233 73.6626 5.99432L74.8558 6.25C75.6607 6.42045 76.3496 6.64536 76.9225 6.92472C77.4955 7.20407 77.9642 7.53314 78.3288 7.91193C78.6934 8.28598 78.9609 8.70739 79.1313 9.17614C79.3065 9.64489 79.3965 10.1562 79.4012 10.7102C79.3965 11.6667 79.1574 12.4763 78.6839 13.1392C78.2104 13.8021 77.5333 14.3063 76.6527 14.652C75.7767 14.9976 74.7232 15.1705 73.4921 15.1705C72.2279 15.1705 71.1247 14.9834 70.1825 14.6094C69.245 14.2353 68.5158 13.66 67.995 12.8835C67.4789 12.1023 67.2185 11.1032 67.2137 9.88636H70.9637C70.9874 10.3314 71.0987 10.7055 71.2975 11.0085C71.4964 11.3116 71.7758 11.5412 72.1356 11.6974C72.5002 11.8537 72.9334 11.9318 73.4353 11.9318C73.8567 11.9318 74.2095 11.8797 74.4936 11.7756C74.7777 11.6714 74.9931 11.527 75.1399 11.3423C75.2867 11.1577 75.3624 10.947 75.3671 10.7102C75.3624 10.4877 75.289 10.2936 75.147 10.1278C75.0097 9.95739 74.7824 9.80587 74.4652 9.6733C74.1479 9.53598 73.7194 9.40814 73.1796 9.28977L71.7308 8.97727C70.4429 8.69792 69.4273 8.23153 68.6839 7.57812C67.9453 6.91998 67.5783 6.02273 67.5831 4.88636C67.5783 3.96307 67.8245 3.15578 68.3217 2.46449C68.8236 1.76847 69.5172 1.22633 70.4027 0.838068C71.2928 0.44981 72.3132 0.255681 73.4637 0.255681C74.638 0.255681 75.6536 0.452178 76.5106 0.84517C77.3676 1.23816 78.0281 1.79214 78.4921 2.5071C78.9609 3.21733 79.1976 4.0483 79.2024 5H75.424ZM0.937744 31V16.4545H4.88661V27.8182H10.7673V31H0.937744ZM25.088 23.7273C25.088 25.3466 24.7732 26.7126 24.1434 27.8253C23.5137 28.9332 22.6638 29.7737 21.5937 30.3466C20.5236 30.9148 19.3305 31.1989 18.0142 31.1989C16.6884 31.1989 15.4905 30.9124 14.4204 30.3395C13.3551 29.7618 12.5075 28.919 11.8778 27.8111C11.2528 26.6984 10.9403 25.3371 10.9403 23.7273C10.9403 22.108 11.2528 20.7443 11.8778 19.6364C12.5075 18.5237 13.3551 17.6832 14.4204 17.1151C15.4905 16.5421 16.6884 16.2557 18.0142 16.2557C19.3305 16.2557 20.5236 16.5421 21.5937 17.1151C22.6638 17.6832 23.5137 18.5237 24.1434 19.6364C24.7732 20.7443 25.088 22.108 25.088 23.7273ZM21.0255 23.7273C21.0255 22.8561 20.9095 22.1222 20.6775 21.5256C20.4502 20.9242 20.1117 20.4697 19.6619 20.1619C19.2168 19.8494 18.6676 19.6932 18.0142 19.6932C17.3608 19.6932 16.8091 19.8494 16.3593 20.1619C15.9143 20.4697 15.5757 20.9242 15.3437 21.5256C15.1164 22.1222 15.0028 22.8561 15.0028 23.7273C15.0028 24.5985 15.1164 25.3348 15.3437 25.9361C15.5757 26.5327 15.9143 26.9872 16.3593 27.2997C16.8091 27.6075 17.3608 27.7614 18.0142 27.7614C18.6676 27.7614 19.2168 27.6075 19.6619 27.2997C20.1117 26.9872 20.4502 26.5327 20.6775 25.9361C20.9095 25.3348 21.0255 24.5985 21.0255 23.7273ZM40.206 23.7273C40.206 25.3466 39.8911 26.7126 39.2614 27.8253C38.6317 28.9332 37.7818 29.7737 36.7117 30.3466C35.6416 30.9148 34.4484 31.1989 33.1321 31.1989C31.8064 31.1989 30.6085 30.9124 29.5384 30.3395C28.473 29.7618 27.6255 28.919 26.9958 27.8111C26.3708 26.6984 26.0583 25.3371 26.0583 23.7273C26.0583 22.108 26.3708 20.7443 26.9958 19.6364C27.6255 18.5237 28.473 17.6832 29.5384 17.1151C30.6085 16.5421 31.8064 16.2557 33.1321 16.2557C34.4484 16.2557 35.6416 16.5421 36.7117 17.1151C37.7818 17.6832 38.6317 18.5237 39.2614 19.6364C39.8911 20.7443 40.206 22.108 40.206 23.7273ZM36.1435 23.7273C36.1435 22.8561 36.0275 22.1222 35.7955 21.5256C35.5682 20.9242 35.2297 20.4697 34.7799 20.1619C34.3348 19.8494 33.7855 19.6932 33.1321 19.6932C32.4787 19.6932 31.9271 19.8494 31.4773 20.1619C31.0322 20.4697 30.6937 20.9242 30.4617 21.5256C30.2344 22.1222 30.1208 22.8561 30.1208 23.7273C30.1208 24.5985 30.2344 25.3348 30.4617 25.9361C30.6937 26.5327 31.0322 26.9872 31.4773 27.2997C31.9271 27.6075 32.4787 27.7614 33.1321 27.7614C33.7855 27.7614 34.3348 27.6075 34.7799 27.2997C35.2297 26.9872 35.5682 26.5327 35.7955 25.9361C36.0275 25.3348 36.1435 24.5985 36.1435 23.7273ZM41.2331 31V16.4545H45.1819V22.3352H45.3808L49.7558 16.4545H54.3581L49.4433 22.9318L54.4717 31H49.7558L46.4887 25.5455L45.1819 27.25V31H41.2331Z" fill="#2E2E2E"/>
<g clip-path="url(#clip0_8826_1320)">
<path d="M64.0528 24.1212C64.0528 22.5606 64.8124 21.104 66.0061 20.1676C65.0294 19.3352 63.7272 18.815 62.3165 18.815C59.2781 18.815 56.7822 21.208 56.7822 24.1212C56.7822 27.0344 59.2781 29.4274 62.3165 29.4274C63.7272 29.4274 65.0294 28.9072 66.0061 28.0749C64.8124 27.1385 64.0528 25.6819 64.0528 24.1212Z" fill="#C04894"/>
<path d="M71.0929 29.6355C74.1494 29.6355 76.6272 27.2133 76.6272 24.2253C76.6272 21.2373 74.1494 18.815 71.0929 18.815C68.0364 18.815 65.5586 21.2373 65.5586 24.2253C65.5586 27.2133 68.0364 29.6355 71.0929 29.6355Z" fill="#624998"/>
</g>
<defs>
<clipPath id="clip0_8826_1320">
<rect width="20" height="15.3333" fill="white" transform="translate(56.666 16)"/>
</clipPath>
</defs>
</svg>
