<?xml version="1.0" encoding="utf-8"?><svg xmlns="http://www.w3.org/2000/svg" xmlns:xlink="http://www.w3.org/1999/xlink"><symbol viewBox="0 0 12 12" id="arrow-xs-down" xmlns="http://www.w3.org/2000/svg"><path fill-rule="evenodd" clip-rule="evenodd" d="M1.646 3.646a.5.5 0 0 1 .708 0L6 7.293l3.646-3.647a.5.5 0 0 1 .708.708L6 8.707 1.646 4.354a.5.5 0 0 1 0-.708Z"/></symbol><symbol viewBox="0 0 24 24" id="cart" xmlns="http://www.w3.org/2000/svg"><path fill-rule="evenodd" clip-rule="evenodd" d="M.5 2.05a1 1 0 0 1 1-1h1.996a1 1 0 0 1 .978.792l.9 4.209H21.5a1 1 0 0 1 .976 1.216l-1.646 7.428v.002a3 3 0 0 1-2.921 2.354H8.157a2.993 2.993 0 0 1-2.984-2.37L3.596 7.304a.993.993 0 0 1-.019-.089l-.89-4.165H1.5a1 1 0 0 1-1-1Zm5.301 6 1.328 6.211a1 1 0 0 0 .995.79h9.782a.995.995 0 0 0 .97-.785l.001-.002 1.377-6.213H5.801ZM5.44 21a1.999 1.999 0 1 1 1.998 2 1.999 1.999 0 0 1-1.998-2Zm10.977 0a1.999 1.999 0 1 1 1.998 2 1.999 1.999 0 0 1-1.998-2Z"/></symbol><symbol viewBox="0 0 24 24" id="cart-empty" xmlns="http://www.w3.org/2000/svg"><path fill-rule="evenodd" clip-rule="evenodd" d="M.7 2.05a.8.8 0 0 1 .8-.8h2.643l2.79 13.053a1.2 1.2 0 0 0 1.196.948H17.906a1.195 1.195 0 0 0 1.166-.942l1.647-7.431a.8.8 0 0 1 1.562.346l-1.646 7.428a2.803 2.803 0 0 1-2.726 2.199H8.155a2.793 2.793 0 0 1-2.786-2.213L2.849 2.851H1.5a.8.8 0 0 1-.8-.8ZM13 3.2a.8.8 0 0 1 .8.8v2.2H16a.8.8 0 0 1 0 1.6h-2.2V10a.8.8 0 0 1-1.6 0V7.8H10a.8.8 0 1 1 0-1.6h2.2V4a.8.8 0 0 1 .8-.8ZM5.64 21a1.799 1.799 0 1 1 1.798 1.8A1.799 1.799 0 0 1 5.64 21Zm10.977 0a1.799 1.799 0 1 1 1.798 1.8 1.799 1.799 0 0 1-1.798-1.8Z"/></symbol><symbol viewBox="0 0 24 24" id="catalog" xmlns="http://www.w3.org/2000/svg"><path fill-rule="evenodd" clip-rule="evenodd" d="M3 6a1 1 0 0 1 1-1h16a1 1 0 1 1 0 2H4a1 1 0 0 1-1-1Zm0 6a1 1 0 0 1 1-1h16a1 1 0 1 1 0 2H4a1 1 0 0 1-1-1Zm0 6a1 1 0 0 1 1-1h16a1 1 0 1 1 0 2H4a1 1 0 0 1-1-1Z"/></symbol><symbol viewBox="0 0 24 24" id="compare" xmlns="http://www.w3.org/2000/svg"><path d="M4 14h4v7H4v-7ZM10 3h4v18h-4V3ZM16 9h4v12h-4V9Z"/></symbol><symbol viewBox="0 0 24 24" id="favorite" xmlns="http://www.w3.org/2000/svg"><path fill-rule="evenodd" clip-rule="evenodd" d="M8.932 6.646c-1.33-1.004-3.28-.589-4.043.769-.5.888-.365 1.976.365 2.74L12 17.5l6.759-7.177c.764-.823.86-1.996.26-2.912-.885-1.35-2.913-1.632-4.184-.521L12 9 8.932 6.646Zm-5.945-.3c1.438-2.56 4.92-3.206 7.259-1.442L12 6.5l1.4-1.253c2.238-1.956 5.81-1.521 7.443.967 1.158 1.766.953 4.044-.484 5.593L12 20.5l-8.323-8.838c-1.381-1.445-1.669-3.576-.69-5.316Z"/></symbol><symbol viewBox="0 0 24 24" id="home" xmlns="http://www.w3.org/2000/svg"><path fill-rule="evenodd" clip-rule="evenodd" d="m8.746 8.107-1 .856c-1.1.943-1.401 1.229-1.563 1.58-.162.353-.183.768-.183 2.217V17c0 .971.002 1.599.065 2.061.058.434.152.57.228.646.077.076.213.17.646.229.378.05.866.061 1.561.063V16a2 2 0 0 1 2-2h3a2 2 0 0 1 2 2v4c.696-.003 1.184-.014 1.561-.064.434-.059.57-.153.646-.23.076-.075.17-.211.229-.645.062-.462.064-1.09.064-2.061v-4.241c0-1.45-.021-1.864-.183-2.216-.162-.352-.462-.636-1.563-1.581l-1-.857c-.951-.815-1.595-1.365-2.135-1.722-.517-.34-.834-.433-1.119-.433-.284 0-.6.092-1.118.434-.54.357-1.184.907-2.136 1.723ZM13.5 20v-4h-3v4h3Zm1.566 2c.887 0 1.65 0 2.262-.082.656-.088 1.284-.287 1.793-.797.51-.51.709-1.137.797-1.793.082-.612.082-1.375.082-2.262V12.57c.001-1.172.002-2.063-.366-2.863-.366-.797-1.041-1.375-1.925-2.132l-.152-.13-1.056-.906c-.888-.76-1.625-1.391-2.28-1.824-.692-.458-1.395-.765-2.22-.765-.827 0-1.53.308-2.222.765-.652.432-1.385 1.06-2.268 1.816l-.066.056-1 .858-.147.125c-.889.761-1.564 1.339-1.932 2.138-.368.8-.367 1.69-.366 2.863v4.495c0 .887 0 1.65.082 2.262.089.655.287 1.284.797 1.793.51.51 1.138.709 1.793.797C7.284 22 8.048 22 8.934 22h6.132Z"/></symbol><symbol viewBox="0 0 24 24" id="location" xmlns="http://www.w3.org/2000/svg"><path d="M12 2c-4.4 0-8 3.6-8 8 0 5.4 7 11.5 7.3 11.8.2.1.5.2.7.2.2 0 .5-.1.7-.2.3-.3 7.3-6.4 7.3-11.8 0-4.4-3.6-8-8-8Zm0 17.7c-2.1-2-6-6.3-6-9.7 0-3.3 2.7-6 6-6s6 2.7 6 6-3.9 7.7-6 9.7ZM12 6c-2.2 0-4 1.8-4 4s1.8 4 4 4 4-1.8 4-4-1.8-4-4-4Zm0 6c-1.1 0-2-.9-2-2s.9-2 2-2 2 .9 2 2-.9 2-2 2Z"/></symbol><symbol viewBox="0 0 24 24" id="phone" xmlns="http://www.w3.org/2000/svg"><path fill-rule="evenodd" clip-rule="evenodd" d="M7.619 4.025c-1.294.173-2.308 1.205-2.67 2.291-.227.68-.324 1.195-.324 1.747 0 .567.103 1.225.345 2.194.246.983.472 1.76.912 2.585.44.826 1.122 1.748 2.325 2.95 1.203 1.204 2.125 1.885 2.951 2.326.825.44 1.602.666 2.585.912.97.242 1.627.345 2.194.345.552 0 1.067-.097 1.747-.324 1.086-.362 2.118-1.376 2.29-2.67a6.044 6.044 0 0 0-.2-.125c-.389-.234-.934-.515-1.515-.79a28.956 28.956 0 0 0-1.636-.716 10.316 10.316 0 0 0-.666-.24.913.913 0 0 0-.197.092c-.167.1-.36.253-.601.463-.077.067-.168.149-.265.236-.163.146-.343.308-.5.44-.267.226-.59.475-.947.653-.555.278-1.125.225-1.563.098-.436-.128-.84-.356-1.172-.58-.656-.442-1.211-.997-1.412-1.198l-.007-.007-.044-.043c-.467-.468-1.036-1.036-1.41-1.634-.401-.643-.706-1.533-.233-2.477a4.93 4.93 0 0 1 .653-.948c.132-.156.294-.336.44-.5.087-.096.17-.187.236-.264.21-.24.363-.434.463-.602a.914.914 0 0 0 .093-.196 10.278 10.278 0 0 0-.24-.667 28.98 28.98 0 0 0-.717-1.635 18.708 18.708 0 0 0-.79-1.516 5.928 5.928 0 0 0-.125-.2ZM9.51 8.117Zm6.373 6.373ZM3.05 5.684C3.654 3.874 5.473 2 8 2c.376 0 .637.193.728.264.122.096.22.205.294.293.15.181.299.409.437.64.282.47.595 1.08.882 1.687.29.61.564 1.24.768 1.755.102.256.19.494.255.693.032.099.062.198.085.292.018.073.051.218.051.376 0 .5-.186.93-.382 1.26-.198.333-.45.64-.678.899-.11.125-.205.231-.296.331-.122.136-.235.26-.356.405-.196.232-.322.41-.394.552-.027.056-.082.166.142.523.24.383.646.798 1.171 1.323.196.196.636.633 1.123.962.246.165.456.27.614.316.07.02.11.024.129.024.139-.072.311-.196.532-.383.144-.121.269-.234.405-.356.1-.09.206-.187.332-.296.259-.227.565-.48.897-.678.331-.196.762-.382 1.261-.382.158 0 .303.033.376.051.094.023.194.053.292.085.199.065.437.153.693.255.515.204 1.144.479 1.755.768.607.287 1.218.6 1.688.882.23.138.458.287.639.437.088.074.197.172.293.294.071.091.264.352.264.728 0 2.527-1.875 4.346-3.684 4.949-.82.273-1.555.426-2.378.426-.808 0-1.65-.147-2.68-.405-1.018-.254-1.991-.528-3.041-1.088-1.05-.56-2.127-1.378-3.424-2.675-1.297-1.297-2.116-2.375-2.675-3.424-.56-1.05-.834-2.023-1.088-3.04-.258-1.03-.405-1.873-.405-2.68 0-.824.153-1.559.426-2.38Zm9.533 8.91-.003.001h.003Z"/></symbol><symbol viewBox="0 0 24 24" id="search" xmlns="http://www.w3.org/2000/svg"><path fill-rule="evenodd" clip-rule="evenodd" d="M1 11.089C1 6.613 4.66 3 9.156 3c4.495 0 8.155 3.613 8.155 8.089 0 1.403-.36 2.722-.993 3.871l5.308 4.26a1 1 0 0 1-1.252 1.56l-5.231-4.199a8.169 8.169 0 0 1-5.987 2.596C4.66 19.177 1 15.565 1 11.09ZM9.156 5C5.747 5 3 7.735 3 11.089c0 3.354 2.747 6.088 6.156 6.088 3.408 0 6.155-2.734 6.155-6.088S12.564 5 9.156 5Z"/></symbol></svg>