<?xml version="1.0" encoding="utf-8"?><svg xmlns="http://www.w3.org/2000/svg" xmlns:xlink="http://www.w3.org/1999/xlink"><symbol viewBox="0 0 12 12" id="arrow-down-xs" xmlns="http://www.w3.org/2000/svg"><path fill-rule="evenodd" clip-rule="evenodd" d="M1.646 3.646a.5.5 0 0 1 .708 0L6 7.293l3.646-3.647a.5.5 0 0 1 .708.708L6 8.707 1.646 4.354a.5.5 0 0 1 0-.708Z"/></symbol><symbol viewBox="0 0 24 24" id="cart" xmlns="http://www.w3.org/2000/svg"><path fill-rule="evenodd" clip-rule="evenodd" d="M.5 2.05a1 1 0 0 1 1-1h1.996a1 1 0 0 1 .978.792l.9 4.209H21.5a1 1 0 0 1 .976 1.216l-1.646 7.428v.002a3 3 0 0 1-2.921 2.354H8.157a2.993 2.993 0 0 1-2.984-2.37L3.596 7.304a.993.993 0 0 1-.019-.089l-.89-4.165H1.5a1 1 0 0 1-1-1Zm5.301 6 1.328 6.211a1 1 0 0 0 .995.79h9.782a.995.995 0 0 0 .97-.785l.001-.002 1.377-6.213H5.801ZM5.44 21a1.999 1.999 0 1 1 1.998 2 1.999 1.999 0 0 1-1.998-2Zm10.977 0a1.999 1.999 0 1 1 1.998 2 1.999 1.999 0 0 1-1.998-2Z"/></symbol><symbol viewBox="0 0 24 24" id="cart-empty" xmlns="http://www.w3.org/2000/svg"><path fill-rule="evenodd" clip-rule="evenodd" d="M.7 2.05a.8.8 0 0 1 .8-.8h2.643l2.79 13.053a1.2 1.2 0 0 0 1.196.948H17.906a1.195 1.195 0 0 0 1.166-.942l1.647-7.431a.8.8 0 0 1 1.562.346l-1.646 7.428a2.803 2.803 0 0 1-2.726 2.199H8.155a2.793 2.793 0 0 1-2.786-2.213L2.849 2.851H1.5a.8.8 0 0 1-.8-.8ZM13 3.2a.8.8 0 0 1 .8.8v2.2H16a.8.8 0 0 1 0 1.6h-2.2V10a.8.8 0 0 1-1.6 0V7.8H10a.8.8 0 1 1 0-1.6h2.2V4a.8.8 0 0 1 .8-.8ZM5.64 21a1.799 1.799 0 1 1 1.798 1.8A1.799 1.799 0 0 1 5.64 21Zm10.977 0a1.799 1.799 0 1 1 1.798 1.8 1.799 1.799 0 0 1-1.798-1.8Z"/></symbol><symbol viewBox="0 0 12 12" id="catalog" xmlns="http://www.w3.org/2000/svg"><path fill-rule="evenodd" clip-rule="evenodd" d="M.3 1A.7.7 0 0 1 1 .3h10a.7.7 0 1 1 0 1.4H1A.7.7 0 0 1 .3 1ZM.3 6a.7.7 0 0 1 .7-.7h10a.7.7 0 1 1 0 1.4H1A.7.7 0 0 1 .3 6ZM.3 11a.7.7 0 0 1 .7-.7h10a.7.7 0 1 1 0 1.4H1a.7.7 0 0 1-.7-.7Z"/></symbol><symbol viewBox="0 0 24 24" id="compare" xmlns="http://www.w3.org/2000/svg"><path d="M4 14h4v7H4v-7ZM10 3h4v18h-4V3ZM16 9h4v12h-4V9Z"/></symbol><symbol viewBox="0 0 24 24" id="favorite" xmlns="http://www.w3.org/2000/svg"><path fill-rule="evenodd" clip-rule="evenodd" d="M8.932 6.646c-1.33-1.004-3.28-.589-4.043.769-.5.888-.365 1.976.365 2.74L12 17.5l6.759-7.177c.764-.823.86-1.996.26-2.912-.885-1.35-2.913-1.632-4.184-.521L12 9 8.932 6.646Zm-5.945-.3c1.438-2.56 4.92-3.206 7.259-1.442L12 6.5l1.4-1.253c2.238-1.956 5.81-1.521 7.443.967 1.158 1.766.953 4.044-.484 5.593L12 20.5l-8.323-8.838c-1.381-1.445-1.669-3.576-.69-5.316Z"/></symbol><symbol viewBox="0 0 24 24" id="home" xmlns="http://www.w3.org/2000/svg"><path fill-rule="evenodd" clip-rule="evenodd" d="m8.746 8.107-1 .856c-1.1.943-1.401 1.229-1.563 1.58-.162.353-.183.768-.183 2.217V17c0 .971.002 1.599.065 2.061.058.434.152.57.228.646.077.076.213.17.646.229.378.05.866.061 1.561.063V16a2 2 0 0 1 2-2h3a2 2 0 0 1 2 2v4c.696-.003 1.184-.014 1.561-.064.434-.059.57-.153.646-.23.076-.075.17-.211.229-.645.062-.462.064-1.09.064-2.061v-4.241c0-1.45-.021-1.864-.183-2.216-.162-.352-.462-.636-1.563-1.581l-1-.857c-.951-.815-1.595-1.365-2.135-1.722-.517-.34-.834-.433-1.119-.433-.284 0-.6.092-1.118.434-.54.357-1.184.907-2.136 1.723ZM13.5 20v-4h-3v4h3Zm1.566 2c.887 0 1.65 0 2.262-.082.656-.088 1.284-.287 1.793-.797.51-.51.709-1.137.797-1.793.082-.612.082-1.375.082-2.262V12.57c.001-1.172.002-2.063-.366-2.863-.366-.797-1.041-1.375-1.925-2.132l-.152-.13-1.056-.906c-.888-.76-1.625-1.391-2.28-1.824-.692-.458-1.395-.765-2.22-.765-.827 0-1.53.308-2.222.765-.652.432-1.385 1.06-2.268 1.816l-.066.056-1 .858-.147.125c-.889.761-1.564 1.339-1.932 2.138-.368.8-.367 1.69-.366 2.863v4.495c0 .887 0 1.65.082 2.262.089.655.287 1.284.797 1.793.51.51 1.138.709 1.793.797C7.284 22 8.048 22 8.934 22h6.132Z"/></symbol><symbol viewBox="0 0 24 24" id="location" xmlns="http://www.w3.org/2000/svg"><path d="M12 2c-4.4 0-8 3.6-8 8 0 5.4 7 11.5 7.3 11.8.2.1.5.2.7.2.2 0 .5-.1.7-.2.3-.3 7.3-6.4 7.3-11.8 0-4.4-3.6-8-8-8Zm0 17.7c-2.1-2-6-6.3-6-9.7 0-3.3 2.7-6 6-6s6 2.7 6 6-3.9 7.7-6 9.7ZM12 6c-2.2 0-4 1.8-4 4s1.8 4 4 4 4-1.8 4-4-1.8-4-4-4Zm0 6c-1.1 0-2-.9-2-2s.9-2 2-2 2 .9 2 2-.9 2-2 2Z"/></symbol><symbol viewBox="0 0 24 24" id="phone" xmlns="http://www.w3.org/2000/svg"><path fill-rule="evenodd" clip-rule="evenodd" d="M7.619 4.025c-1.294.173-2.308 1.205-2.67 2.291-.227.68-.324 1.195-.324 1.747 0 .567.103 1.225.345 2.194.246.983.472 1.76.912 2.585.44.826 1.122 1.748 2.325 2.95 1.203 1.204 2.125 1.885 2.951 2.326.825.44 1.602.666 2.585.912.97.242 1.627.345 2.194.345.552 0 1.067-.097 1.747-.324 1.086-.362 2.118-1.376 2.29-2.67a6.044 6.044 0 0 0-.2-.125c-.389-.234-.934-.515-1.515-.79a28.956 28.956 0 0 0-1.636-.716 10.316 10.316 0 0 0-.666-.24.913.913 0 0 0-.197.092c-.167.1-.36.253-.601.463-.077.067-.168.149-.265.236-.163.146-.343.308-.5.44-.267.226-.59.475-.947.653-.555.278-1.125.225-1.563.098-.436-.128-.84-.356-1.172-.58-.656-.442-1.211-.997-1.412-1.198l-.007-.007-.044-.043c-.467-.468-1.036-1.036-1.41-1.634-.401-.643-.706-1.533-.233-2.477a4.93 4.93 0 0 1 .653-.948c.132-.156.294-.336.44-.5.087-.096.17-.187.236-.264.21-.24.363-.434.463-.602a.914.914 0 0 0 .093-.196 10.278 10.278 0 0 0-.24-.667 28.98 28.98 0 0 0-.717-1.635 18.708 18.708 0 0 0-.79-1.516 5.928 5.928 0 0 0-.125-.2ZM9.51 8.117Zm6.373 6.373ZM3.05 5.684C3.654 3.874 5.473 2 8 2c.376 0 .637.193.728.264.122.096.22.205.294.293.15.181.299.409.437.64.282.47.595 1.08.882 1.687.29.61.564 1.24.768 1.755.102.256.19.494.255.693.032.099.062.198.085.292.018.073.051.218.051.376 0 .5-.186.93-.382 1.26-.198.333-.45.64-.678.899-.11.125-.205.231-.296.331-.122.136-.235.26-.356.405-.196.232-.322.41-.394.552-.027.056-.082.166.142.523.24.383.646.798 1.171 1.323.196.196.636.633 1.123.962.246.165.456.27.614.316.07.02.11.024.129.024.139-.072.311-.196.532-.383.144-.121.269-.234.405-.356.1-.09.206-.187.332-.296.259-.227.565-.48.897-.678.331-.196.762-.382 1.261-.382.158 0 .303.033.376.051.094.023.194.053.292.085.199.065.437.153.693.255.515.204 1.144.479 1.755.768.607.287 1.218.6 1.688.882.23.138.458.287.639.437.088.074.197.172.293.294.071.091.264.352.264.728 0 2.527-1.875 4.346-3.684 4.949-.82.273-1.555.426-2.378.426-.808 0-1.65-.147-2.68-.405-1.018-.254-1.991-.528-3.041-1.088-1.05-.56-2.127-1.378-3.424-2.675-1.297-1.297-2.116-2.375-2.675-3.424-.56-1.05-.834-2.023-1.088-3.04-.258-1.03-.405-1.873-.405-2.68 0-.824.153-1.559.426-2.38Zm9.533 8.91-.003.001h.003Z"/></symbol><symbol viewBox="0 0 24 24" id="search" xmlns="http://www.w3.org/2000/svg"><path fill-rule="evenodd" clip-rule="evenodd" d="M1 11.089C1 6.613 4.66 3 9.156 3c4.495 0 8.155 3.613 8.155 8.089 0 1.403-.36 2.722-.993 3.871l5.308 4.26a1 1 0 0 1-1.252 1.56l-5.231-4.199a8.169 8.169 0 0 1-5.987 2.596C4.66 19.177 1 15.565 1 11.09ZM9.156 5C5.747 5 3 7.735 3 11.089c0 3.354 2.747 6.088 6.156 6.088 3.408 0 6.155-2.734 6.155-6.088S12.564 5 9.156 5Z"/></symbol><symbol viewBox="0 0 36 36" id="telegram" xmlns="http://www.w3.org/2000/svg"><path fill-rule="evenodd" clip-rule="evenodd" d="M8.682 21.03c.065.02.131.035.198.046.424 1 .846 2.002 1.266 3.003.754 1.803 1.515 3.66 1.681 4.194.209.657.428 1.105.668 1.41.125.157.267.294.435.4a1.783 1.783 0 0 0 1.472.146 1.95 1.95 0 0 0 .456-.226l.007-.003 4.239-2.643 4.898 3.753c.072.055.15.102.233.14.588.255 1.159.345 1.695.273a2.606 2.606 0 0 0 1.276-.552 3 3 0 0 0 .846-1.093l.013-.032.005-.012.003-.006v-.003l.001-.002c.025-.065.045-.132.06-.2l4.47-22.537c.012-.072.02-.146.021-.219 0-.66-.249-1.289-.832-1.668-.502-.326-1.058-.34-1.41-.314-.378.03-.73.123-.965.198-.132.043-.262.09-.39.141l-.016.008L3.94 15.066l-.003.002a3.745 3.745 0 0 0-.82.421c-.34.233-1.125.871-.992 1.928.105.84.681 1.357 1.034 1.606.192.137.375.234.51.299.06.03.189.08.244.105l.015.004 4.754 1.599ZM29.889 7.302h-.003l-.039.016-25.101 9.848-.039.015-.015.005a1.483 1.483 0 0 0-.135.06c.042.023.085.045.129.064l4.713 1.587a1.5 1.5 0 0 1 .24.114l15.566-9.113.015-.007a2.998 2.998 0 0 1 .662-.299c.134-.042.535-.16.967-.02a1.275 1.275 0 0 1 .881 1.033c.056.208.058.427.005.636-.105.412-.393.734-.655.98-.225.21-3.144 3.024-6.023 5.802l-3.92 3.78-.697.674 8.808 6.753c.119.05.248.07.377.06a.345.345 0 0 0 .175-.078.75.75 0 0 0 .154-.18l.003-.001 4.335-21.86c-.136.034-.27.077-.4.13l-.003.001ZM17.198 25.893l-1.758-1.347-.426 2.707 2.184-1.36Zm-3.371-4.02 1.748-1.688 3.919-3.782 1.46-1.407-9.78 5.725.052.123a508.034 508.034 0 0 1 1.83 4.38l.425-2.7c.038-.25.16-.479.346-.651Z"/></symbol><symbol viewBox="0 0 36 36" id="vk" xmlns="http://www.w3.org/2000/svg"><path fill-rule="evenodd" clip-rule="evenodd" d="M28.699 8h2.806c.36 0 .724.02 1.053.098.33.077.725.235 1.03.592.319.375.413.82.412 1.215-.001.375-.088.766-.203 1.146-.887 2.93-2.762 5.632-4.09 7.306-.283.356-.48.605-.614.794.197.196.487.453.908.826l.006.006a14.435 14.435 0 0 1 3.429 4.65l.001.003c.187.404.339.817.393 1.216.056.416.016.921-.311 1.36-.31.415-.748.592-1.099.677-.357.087-.76.111-1.167.111h-3.001c-.394 0-.894-.027-1.348-.32-.458-.295-.7-.749-.87-1.123-.46-1.01-1.063-2.2-2.179-3.164-.362-.313-.564-.448-.706-.51a.496.496 0 0 0-.328-.031c-.086.015-.114.04-.136.066-.037.044-.096.142-.148.337-.11.416-.112.945-.112 1.507 0 .985-.165 1.986-.905 2.631-.718.626-1.683.647-2.53.563-4.964-.492-8.756-3.32-11.379-6.725C5 17.84 3.484 13.801 3.077 10.684v-.001a50.604 50.604 0 0 0-.007-.052c-.036-.277-.078-.6-.069-.884.012-.363.105-.77.414-1.132l.004-.005c.324-.376.726-.512 1.068-.566C4.768 8 5.1 8 5.403 8h3.284c.244 0 .507 0 .732.027.264.03.598.11.906.358.314.253.468.574.559.833.079.225.141.496.2.75.002.014.005.028.009.041.624 2.723 1.549 5.091 3.253 6.96l.295.32c.002-.17.002-.36.002-.582v-3.963c0-.368-.067-.585-.294-1.048l-.03-.06c-.21-.43-.419-.854-.535-1.217-.126-.394-.236-.989.114-1.566.348-.574.912-.737 1.31-.797C15.574 8 16.037 8 16.51 8h.088l3.389.08c.316 0 .64.015.936.082.314.07.663.214.951.52.285.303.413.664.476.98.06.306.074.64.074.968v5.507c0 .19 0 .355.005.5.104-.105.218-.226.35-.365 1.473-1.55 2.962-3.753 3.406-5.947l.005-.025c.071-.352.139-.685.219-.95.08-.267.222-.637.544-.924.337-.3.721-.376.992-.404.223-.023.493-.022.753-.022Zm.182 10.917c-.002-.003-.001-.002 0 .002v-.002Zm-.541-8.792c-.035.143-.076.341-.135.632-.557 2.755-2.344 5.31-3.95 7l-.046.047c-.325.342-.676.712-1.013.957-.376.274-.985.573-1.692.28-.656-.273-.93-.844-1.04-1.352-.096-.447-.101-1.001-.101-1.552V10.63c0-.186-.006-.319-.015-.414a4.005 4.005 0 0 0-.395-.014l-3.39-.08c-.263 0-.476.001-.658.006h-.01c.079.17.175.367.294.61.3.61.516 1.171.516 2.006v4.043c0 .556 0 1.107-.073 1.537-.086.495-.326 1.147-1.046 1.436l-.002.001c-.3.12-.62.149-.942.074a1.982 1.982 0 0 1-.73-.358c-.329-.246-.675-.624-1.011-.991a17 17 0 0 0-.056-.062l-.002-.001c-2.057-2.255-3.094-5.035-3.757-7.926-.034-.148-.06-.263-.085-.361l-.003-.01-.006-.001c-.095-.002-.204-.002-.346-.002H5.455c-.148 0-.266 0-.369.002l.035.277c.357 2.733 1.722 6.415 4.106 9.51 2.374 3.083 5.695 5.509 9.96 5.931.788.078.976-.048 1.001-.07.004-.003.175-.152.175-1.01v-.083c-.001-.493-.002-1.28.185-1.985.21-.788.735-1.729 1.93-1.936.517-.09.999-.04 1.482.172.437.193.834.503 1.22.835 1.477 1.277 2.235 2.823 2.72 3.889.048.105.083.17.108.212.049.006.125.01.244.01h3c.188 0 .337-.006.454-.017a4.405 4.405 0 0 0-.131-.312 12.316 12.316 0 0 0-2.922-3.965l-.003-.002-.023-.02a20.688 20.688 0 0 1-1.068-.985c-.135-.141-.276-.3-.39-.475a1.622 1.622 0 0 1-.271-.747c-.05-.563.242-1.028.403-1.273.191-.288.468-.637.78-1.03l.03-.036c1.276-1.61 2.95-4.059 3.717-6.596a3.82 3.82 0 0 0 .075-.281 4.434 4.434 0 0 0-.398-.015H28.713c-.161 0-.28 0-.373.002Z"/></symbol><symbol viewBox="0 0 36 36" id="whatsapp" xmlns="http://www.w3.org/2000/svg"><path d="M28.575 7.365A14.73 14.73 0 0 0 18.06 3C9.87 3 3.195 9.675 3.195 17.865c0 2.625.69 5.175 1.98 7.425L3.075 33l7.875-2.07a14.869 14.869 0 0 0 7.11 1.815c8.19 0 14.865-6.675 14.865-14.865 0-3.975-1.545-7.71-4.35-10.515ZM18.06 30.225c-2.22 0-4.395-.6-6.3-1.725l-.45-.27-4.68 1.23 1.245-4.56-.3-.465a12.39 12.39 0 0 1-1.89-6.57c0-6.81 5.55-12.36 12.36-12.36 3.3 0 6.405 1.29 8.73 3.63a12.269 12.269 0 0 1 3.615 8.745c.03 6.81-5.52 12.345-12.33 12.345Zm6.78-9.24c-.375-.18-2.205-1.08-2.535-1.215-.345-.12-.585-.18-.84.18-.255.375-.96 1.215-1.17 1.455-.21.255-.435.285-.81.09-.375-.18-1.575-.585-2.985-1.845-1.11-.99-1.845-2.205-2.07-2.58-.21-.375-.03-.57.165-.765.165-.165.375-.435.555-.645.18-.21.255-.375.375-.615.12-.255.06-.465-.03-.645s-.84-2.01-1.14-2.76c-.3-.72-.615-.63-.84-.645h-.72c-.255 0-.645.09-.99.465-.33.375-1.29 1.275-1.29 3.105s1.335 3.6 1.515 3.84c.18.255 2.625 4.005 6.345 5.61.885.39 1.575.615 2.115.78.885.285 1.695.24 2.34.15.72-.105 2.205-.9 2.505-1.77.315-.87.315-1.605.21-1.77-.105-.165-.33-.24-.705-.42Z"/></symbol><symbol viewBox="0 0 36 36" id="youtube" xmlns="http://www.w3.org/2000/svg"><path fill-rule="evenodd" clip-rule="evenodd" d="M15.508 12.214a1.134 1.134 0 0 0-1.166-.015 1.175 1.175 0 0 0-.43.436c-.103.182-.158.39-.158.6v9.53c0 .21.055.418.158.6.103.182.252.333.43.436a1.133 1.133 0 0 0 1.166-.015l7.72-4.765c.17-.106.312-.255.41-.434a1.217 1.217 0 0 0 0-1.174 1.176 1.176 0 0 0-.41-.434l-7.72-4.765ZM20.381 18l-4.31 2.66v-5.32L20.38 18Z"/><path fill-rule="evenodd" clip-rule="evenodd" d="M25.765 6.312a96.8 96.8 0 0 0-15.53 0l-3.46.28A4.531 4.531 0 0 0 4.03 7.817a4.766 4.766 0 0 0-1.428 2.706 46.714 46.714 0 0 0 0 14.955 4.766 4.766 0 0 0 1.428 2.705 4.53 4.53 0 0 0 2.745 1.226l3.458.28c5.17.415 10.364.415 15.534 0l3.458-.28a4.53 4.53 0 0 0 2.745-1.226 4.766 4.766 0 0 0 1.428-2.705 46.733 46.733 0 0 0 0-14.956 4.766 4.766 0 0 0-1.428-2.705 4.531 4.531 0 0 0-2.745-1.225l-3.46-.28Zm-15.35 2.376a94.547 94.547 0 0 1 15.173 0l3.458.278c1.044.084 1.897.89 2.069 1.95a44.1 44.1 0 0 1 0 14.168 2.363 2.363 0 0 1-.708 1.342 2.247 2.247 0 0 1-1.361.608l-3.458.278a94.54 94.54 0 0 1-15.173 0l-3.458-.278a2.247 2.247 0 0 1-1.361-.608 2.363 2.363 0 0 1-.708-1.342 44.101 44.101 0 0 1 0-14.168c.084-.516.333-.988.708-1.342a2.247 2.247 0 0 1 1.361-.608l3.458-.278Z"/></symbol></svg>